<svg xmlns="http://www.w3.org/2000/svg" viewBox="0 0 420 420" role="img" aria-labelledby="title desc">
  <title id="title">Guo-Hua Xu portrait placeholder</title>
  <desc id="desc">A geometric placeholder with the initials GX. Replace this file with a personal portrait.</desc>
  <defs>
    <linearGradient id="bg" x1="0" y1="0" x2="1" y2="1">
      <stop offset="0" stop-color="#e7f1f7"/>
      <stop offset="1" stop-color="#c9dce8"/>
    </linearGradient>
    <radialGradient id="halo" cx="50%" cy="44%" r="52%">
      <stop offset="0" stop-color="#ffffff" stop-opacity=".9"/>
      <stop offset="1" stop-color="#ffffff" stop-opacity="0"/>
    </radialGradient>
  </defs>
  <rect width="420" height="420" rx="34" fill="url(#bg)"/>
  <circle cx="212" cy="180" r="148" fill="url(#halo)"/>
  <path d="M70 314c48-52 92-79 142-79s99 26 138 79" fill="none" stroke="#7ca7bf" stroke-width="2" opacity=".55"/>
  <ellipse cx="210" cy="207" rx="145" ry="72" fill="none" stroke="#6f9bb5" stroke-width="2.4" opacity=".5"/>
  <path d="M60 273c70-99 116-136 150-136s81 37 150 136" fill="none" stroke="#b17e2c" stroke-width="2.1" opacity=".45"/>
  <g fill="#1b526f">
    <circle cx="105" cy="224" r="5"/>
    <circle cx="145" cy="171" r="5"/>
    <circle cx="189" cy="151" r="5"/>
    <circle cx="241" cy="164" r="5"/>
    <circle cx="302" cy="213" r="5"/>
  </g>
  <text x="210" y="238" text-anchor="middle" font-family="Georgia,serif" font-size="108" letter-spacing="-9" fill="#164767">GX</text>
  <text x="210" y="282" text-anchor="middle" font-family="Arial,sans-serif" font-size="13" letter-spacing="4" fill="#51758a">PORTRAIT PLACEHOLDER</text>
</svg>
